<svg xmlns="http://www.w3.org/2000/svg" width="432" height="432" viewBox="0 0 256 256" fill="none">
  <defs>
    <filter id="shadow" x="-30%" y="-30%" width="160%" height="180%">
      <feGaussianBlur in="SourceAlpha" stdDeviation="7"/>
      <feOffset dy="10"/>
      <feColorMatrix type="matrix" values="0 0 0 0 0.06 0 0 0 0 0.02 0 0 0 0 0.03 0 0 0 0.24 0"/>
      <feBlend in2="SourceGraphic" mode="normal"/>
    </filter>
  </defs>

  <g filter="url(#shadow)">
    <ellipse cx="128" cy="132" rx="66" ry="52" fill="#8EE15C"/>
    <ellipse cx="128" cy="126" rx="61" ry="45" fill="#9BE564"/>
    <ellipse cx="128" cy="146" rx="52" ry="22" fill="#7CCF4F" fill-opacity="0.95"/>

    <ellipse cx="104" cy="97" rx="17" ry="10" fill="#DAF7B8" fill-opacity="0.72"/>
    <ellipse cx="148" cy="91" rx="13" ry="7" fill="#DAF7B8" fill-opacity="0.72"/>

    <circle cx="106" cy="131" r="9.5" fill="#0B0F14"/>
    <circle cx="150" cy="131" r="9.5" fill="#0B0F14"/>
    <circle cx="102.5" cy="126.7" r="3" fill="white"/>
    <circle cx="146.5" cy="126.7" r="3" fill="white"/>
    <circle cx="108.8" cy="135.2" r="1.8" fill="white"/>
    <circle cx="152.8" cy="135.2" r="1.8" fill="white"/>

    <ellipse cx="87" cy="144" rx="8" ry="4.7" fill="#FF8FB1" fill-opacity="0.84"/>
    <ellipse cx="169" cy="144" rx="8" ry="4.7" fill="#FF8FB1" fill-opacity="0.84"/>
    <path d="M121.5 142C123.5 145 132.5 145 134.5 142" stroke="#4F7F27" stroke-width="3.4" stroke-linecap="round"/>
  </g>
</svg>
