<svg xmlns="http://www.w3.org/2000/svg" width="1280" height="720" viewBox="0 0 1280 720" fill="none">
  <defs>
    <linearGradient id="bg" x1="216" y1="88" x2="1078" y2="666" gradientUnits="userSpaceOnUse">
      <stop stop-color="#3F120D"/>
      <stop offset="0.56" stop-color="#4C170F"/>
      <stop offset="1" stop-color="#241012"/>
    </linearGradient>
    <filter id="softShadow" x="-30%" y="-30%" width="160%" height="180%">
      <feGaussianBlur in="SourceAlpha" stdDeviation="10"/>
      <feOffset dy="10"/>
      <feColorMatrix type="matrix" values="0 0 0 0 0.07 0 0 0 0 0.01 0 0 0 0 0.02 0 0 0 0.42 0"/>
      <feBlend in2="SourceGraphic" mode="normal"/>
    </filter>
  </defs>

  <rect width="1280" height="720" fill="url(#bg)"/>
  <rect x="64" y="54" width="1152" height="612" rx="48" fill="#2A0B0C" fill-opacity="0.1" stroke="#8E4326" stroke-opacity="0.16" stroke-width="4"/>

  <text x="640" y="220" text-anchor="middle" fill="#FFBA45" font-family="Avenir, Trebuchet MS, sans-serif" font-size="46" font-weight="700" letter-spacing="2">
    HELLGATE
  </text>
  <ellipse cx="640" cy="488" rx="98" ry="20" fill="#140405" fill-opacity="0.3"/>

  <g filter="url(#softShadow)" transform="translate(584 360)">
    <svg width="112" height="90" viewBox="0 0 92 74" x="0" y="0">
      <ellipse cx="46" cy="39" rx="46" ry="35" fill="#8EE15C"/>
      <ellipse cx="46" cy="35" rx="43.24" ry="30.8" fill="#9BE564"/>
      <ellipse cx="46" cy="47.36" rx="37.72" ry="15.54" fill="#7CCF4F" fill-opacity="0.95"/>
      <ellipse cx="31.28" cy="16.28" rx="11.04" ry="6.66" fill="#DAF7B8" fill-opacity="0.7"/>
      <ellipse cx="60.72" cy="13.32" rx="9.2" ry="5.18" fill="#DAF7B8" fill-opacity="0.7"/>
      <circle cx="30.36" cy="39.22" r="6.44" fill="#0B0F14"/>
      <circle cx="61.64" cy="39.22" r="6.44" fill="#0B0F14"/>
      <circle cx="28.06" cy="36.7" r="2.3" fill="white"/>
      <circle cx="59.34" cy="36.7" r="2.3" fill="white"/>
      <circle cx="32.2" cy="42.18" r="1.29" fill="white"/>
      <circle cx="63.48" cy="42.18" r="1.29" fill="white"/>
      <ellipse cx="19.32" cy="47.36" rx="5.52" ry="3.33" fill="#FF8FB1" fill-opacity="0.85"/>
      <ellipse cx="72.68" cy="47.36" rx="5.52" ry="3.33" fill="#FF8FB1" fill-opacity="0.85"/>
      <path d="M42.67 44.4C43.95 46.51 48.05 46.51 49.33 44.4" stroke="#4F7F27" stroke-width="2" stroke-linecap="round"/>
    </svg>
  </g>
</svg>
