<svg xmlns="http://www.w3.org/2000/svg" width="1280" height="720" viewBox="0 0 1280 720" fill="none">
  <defs>
    <linearGradient id="bg" x1="120" y1="36" x2="1108" y2="700" gradientUnits="userSpaceOnUse">
      <stop stop-color="#3F120D"/>
      <stop offset="0.52" stop-color="#521C12"/>
      <stop offset="1" stop-color="#241012"/>
    </linearGradient>
    <linearGradient id="platform" x1="346" y1="472" x2="934" y2="472" gradientUnits="userSpaceOnUse">
      <stop stop-color="#6E311B"/>
      <stop offset="1" stop-color="#8D4120"/>
    </linearGradient>
    <filter id="shadow" x="-20%" y="-20%" width="140%" height="160%">
      <feGaussianBlur in="SourceAlpha" stdDeviation="12"/>
      <feOffset dy="10"/>
      <feColorMatrix type="matrix" values="0 0 0 0 0.08 0 0 0 0 0.02 0 0 0 0 0.03 0 0 0 0.45 0"/>
      <feBlend in2="SourceGraphic" mode="normal"/>
    </filter>
    <filter id="eyeGlow" x="-30%" y="-30%" width="160%" height="160%">
      <feGaussianBlur stdDeviation="2.4" result="blur"/>
      <feMerge>
        <feMergeNode in="blur"/>
        <feMergeNode in="SourceGraphic"/>
      </feMerge>
    </filter>
  </defs>

  <rect width="1280" height="720" fill="url(#bg)"/>
  <rect x="46" y="40" width="1188" height="640" rx="54" fill="#2C0F11" fill-opacity="0.12" stroke="#8E4326" stroke-opacity="0.18" stroke-width="4"/>

  <rect x="346" y="462" width="588" height="38" rx="14" fill="url(#platform)"/>
  <rect x="346" y="450" width="588" height="12" rx="6" fill="#FF7A20"/>
  <ellipse cx="640" cy="514" rx="190" ry="30" fill="#140405" fill-opacity="0.34"/>

  <g filter="url(#shadow)">
    <ellipse cx="640" cy="358" rx="126" ry="94" fill="#8EE15C"/>
    <ellipse cx="640" cy="347" rx="118" ry="84" fill="#9BE564"/>
    <ellipse cx="640" cy="380" rx="96" ry="36" fill="#7CCF4F" fill-opacity="0.95"/>
    <ellipse cx="595" cy="293" rx="28" ry="14" fill="#DAF7B8" fill-opacity="0.72"/>
    <ellipse cx="679" cy="286" rx="22" ry="11" fill="#DAF7B8" fill-opacity="0.72"/>

    <circle cx="602" cy="355" r="17" fill="#0B0F14"/>
    <circle cx="684" cy="355" r="17" fill="#0B0F14"/>
    <circle cx="596" cy="348" r="5.2" fill="white"/>
    <circle cx="678" cy="348" r="5.2" fill="white"/>
    <circle cx="607" cy="364" r="3" fill="white"/>
    <circle cx="689" cy="364" r="3" fill="white"/>

    <ellipse cx="566" cy="379" rx="14" ry="7" fill="#FF8FB1" fill-opacity="0.82"/>
    <ellipse cx="714" cy="379" rx="14" ry="7" fill="#FF8FB1" fill-opacity="0.82"/>
    <path d="M629 374C633 379 647 379 651 374" stroke="#4F7F27" stroke-width="5" stroke-linecap="round"/>
  </g>

  <g transform="translate(842 170) rotate(10)" filter="url(#shadow)" opacity="0.96">
    <circle cx="54" cy="44" r="36" fill="#FFFFFF" fill-opacity="0.18"/>
    <circle cx="54" cy="44" r="28" fill="#F4F1EC" stroke="#2D1A16" stroke-width="6"/>
    <ellipse cx="43" cy="44" rx="7.8" ry="7" fill="#FF2D2D" filter="url(#eyeGlow)"/>
    <ellipse cx="65" cy="44" rx="7.8" ry="7" fill="#FF2D2D" filter="url(#eyeGlow)"/>
    <g stroke="#2D1A16" stroke-width="5" stroke-linecap="round">
      <path d="M54 70V110"/>
      <path d="M40 80H68"/>
      <path d="M54 86L31 105L22 132"/>
      <path d="M54 86L77 105L87 132"/>
      <path d="M54 110L42 143L34 172"/>
      <path d="M54 110L66 143L75 172"/>
    </g>
    <g fill="#F4F1EC">
      <circle cx="22" cy="132" r="4.5"/>
      <circle cx="87" cy="132" r="4.5"/>
      <circle cx="34" cy="172" r="5.8"/>
      <circle cx="75" cy="172" r="5.8"/>
    </g>
  </g>
</svg>
