<svg xmlns="http://www.w3.org/2000/svg" width="256" height="256" viewBox="0 0 256 256" fill="none">
  <defs>
    <linearGradient id="bg" x1="36" y1="22" x2="212" y2="236" gradientUnits="userSpaceOnUse">
      <stop stop-color="#3F120D"/>
      <stop offset="0.55" stop-color="#521C12"/>
      <stop offset="1" stop-color="#241012"/>
    </linearGradient>
    <linearGradient id="platform" x1="40" y1="176" x2="216" y2="176" gradientUnits="userSpaceOnUse">
      <stop stop-color="#6E311B"/>
      <stop offset="1" stop-color="#8D4120"/>
    </linearGradient>
    <filter id="shadow" x="-20%" y="-20%" width="140%" height="160%">
      <feGaussianBlur in="SourceAlpha" stdDeviation="7"/>
      <feOffset dy="6"/>
      <feColorMatrix type="matrix" values="0 0 0 0 0.08 0 0 0 0 0.02 0 0 0 0 0.03 0 0 0 0.45 0"/>
      <feBlend in2="SourceGraphic" mode="normal"/>
    </filter>
    <filter id="eyeGlow" x="-30%" y="-30%" width="160%" height="160%">
      <feGaussianBlur stdDeviation="1.5" result="blur"/>
      <feMerge>
        <feMergeNode in="blur"/>
        <feMergeNode in="SourceGraphic"/>
      </feMerge>
    </filter>
  </defs>

  <rect width="256" height="256" rx="52" fill="url(#bg)"/>
  <rect x="20" y="20" width="216" height="216" rx="40" fill="#2C0F11" fill-opacity="0.14" stroke="#8E4326" stroke-opacity="0.18"/>

  <rect x="40" y="167" width="176" height="26" rx="10" fill="url(#platform)"/>
  <rect x="40" y="160" width="176" height="8" rx="4" fill="#FF7A20"/>

  <ellipse cx="126" cy="177" rx="42" ry="12" fill="#140405" fill-opacity="0.34"/>

  <g filter="url(#shadow)">
    <ellipse cx="128" cy="129" rx="56" ry="44" fill="#8EE15C"/>
    <ellipse cx="128" cy="124" rx="52" ry="38.72" fill="#9BE564"/>
    <ellipse cx="128" cy="140" rx="44" ry="19" fill="#7CCF4F" fill-opacity="0.95"/>
    <ellipse cx="110" cy="99" rx="14" ry="8" fill="#DAF7B8" fill-opacity="0.7"/>
    <ellipse cx="147" cy="95" rx="11" ry="6" fill="#DAF7B8" fill-opacity="0.7"/>

    <circle cx="109" cy="128" r="8" fill="#0B0F14"/>
    <circle cx="147" cy="128" r="8" fill="#0B0F14"/>
    <circle cx="106" cy="124.5" r="2.6" fill="white"/>
    <circle cx="144" cy="124.5" r="2.6" fill="white"/>
    <circle cx="111.5" cy="132" r="1.5" fill="white"/>
    <circle cx="149.5" cy="132" r="1.5" fill="white"/>

    <ellipse cx="93" cy="139" rx="7" ry="4.2" fill="#FF8FB1" fill-opacity="0.82"/>
    <ellipse cx="163" cy="139" rx="7" ry="4.2" fill="#FF8FB1" fill-opacity="0.82"/>
    <path d="M122 136.5C123.8 139.2 132.2 139.2 134 136.5" stroke="#4F7F27" stroke-width="3" stroke-linecap="round"/>
  </g>

  <g transform="translate(175 54) rotate(10)" filter="url(#shadow)" opacity="0.96">
    <circle cx="22" cy="18" r="15" fill="#FFFFFF" fill-opacity="0.18"/>
    <circle cx="22" cy="18" r="11.5" fill="#F4F1EC" stroke="#2D1A16" stroke-width="2.6"/>
    <ellipse cx="17.5" cy="18" rx="3.1" ry="2.8" fill="#FF2D2D" filter="url(#eyeGlow)"/>
    <ellipse cx="26.5" cy="18" rx="3.1" ry="2.8" fill="#FF2D2D" filter="url(#eyeGlow)"/>
    <g stroke="#2D1A16" stroke-width="2.4" stroke-linecap="round">
      <path d="M22 28V46"/>
      <path d="M16 32H28"/>
      <path d="M22 35L11 44L7 56"/>
      <path d="M22 35L33 44L38 56"/>
      <path d="M22 46L16 61L12 74"/>
      <path d="M22 46L28 61L33 74"/>
    </g>
    <g fill="#F4F1EC">
      <circle cx="7" cy="56" r="2.2"/>
      <circle cx="38" cy="56" r="2.2"/>
      <circle cx="12" cy="74" r="2.9"/>
      <circle cx="33" cy="74" r="2.9"/>
    </g>
    <path d="M-4 48C-1 36 8 29 18 28" stroke="#7A4A10" stroke-width="3" stroke-linecap="round" stroke-opacity="0.75"/>
    <path d="M-2 48C1 38 9 31 17 30" stroke="#D9AA2A" stroke-width="2.2" stroke-linecap="round"/>
  </g>
</svg>
